<?xml version="1.0" encoding="UTF-8" standalone="no"?>
<svg
   width="24"
   height="24"
   viewBox="0 0 23.999998 23.999997"
   fill="none"
   version="1.1"
   id="svg1376"
   sodipodi:docname="apple-logo.svg"
   inkscape:version="1.1 (c68e22c387, 2021-05-23)"
   xmlns:inkscape="http://www.inkscape.org/namespaces/inkscape"
   xmlns:sodipodi="http://sodipodi.sourceforge.net/DTD/sodipodi-0.dtd"
   xmlns="http://www.w3.org/2000/svg"
   xmlns:svg="http://www.w3.org/2000/svg">
  <defs
     id="defs1380" />
  <sodipodi:namedview
     id="namedview1378"
     pagecolor="#ffffff"
     bordercolor="#666666"
     borderopacity="1.0"
     inkscape:pageshadow="2"
     inkscape:pageopacity="0.0"
     inkscape:pagecheckerboard="0"
     showgrid="false"
     width="23px"
     units="px"
     fit-margin-top="0"
     fit-margin-left="0"
     fit-margin-right="0"
     fit-margin-bottom="0"
     inkscape:zoom="11.416667"
     inkscape:cx="16.248175"
     inkscape:cy="10.291971"
     inkscape:window-width="1366"
     inkscape:window-height="705"
     inkscape:window-x="-8"
     inkscape:window-y="-8"
     inkscape:window-maximized="1"
     inkscape:current-layer="svg1376" />
  <path
     d="m 66.49678,5 c 1.6168,0 3.1013,0.55353 4.2863,1.47406 l 3.6372,-3.46997 C 72.30558,1.13995 69.53738,0 66.49678,0 61.88918,0 57.89345,2.59991 55.88258,6.40985 l 4.04444,3.19293 C 60.90675,6.91937 63.47426,5 66.49678,5 Z"
     fill="#fefefe"
     id="path1354" />
  <path
     d="m 78.39288,13.5018 c 0.0625,-0.4916 0.1039,-0.9931 0.1039,-1.5018 0,-0.8578 -0.0937,-1.6932 -0.2648,-2.5 h -11.7352 v 5 h 6.4862 c -0.5247,1.3638 -1.459,2.5178 -2.6482,3.3195 l 4.0595,3.2048 c 2.1519,-1.8889 3.6245,-4.5339 3.9986,-7.5225 z"
     fill="#fefefe"
     id="path1356" />
  <path
     d="m 59.49678,12 c 0,-0.8434 0.15686,-1.6484 0.43024,-2.39722 L 55.88258,6.40985 C 55.001113,8.08002 54.49678,9.98016 54.49678,12 c 0,1.9973 0.495056,3.8763 1.35822,5.533 l 4.04956,-3.1971 C 59.64522,13.6044 59.49678,12.8204 59.49678,12 Z"
     fill="#fefefe"
     id="path1358" />
  <path
     d="M 66.49678,19 C 63.45125,19 60.8672,17.0515 59.90456,14.3359 L 55.855,17.533 C 57.85603,21.3735 61.86659,24 66.49678,24 c 3.0278,0 5.7888,-1.1248 7.8975,-2.9757 l -4.0595,-3.2048 C 69.23798,18.5589 67.92518,19 66.49678,19 Z"
     fill="#fefefe"
     id="path1360" />
  <path
     opacity="0.1"
     d="m 66.49678,23.75 c -3.53168,0 -6.70728,-1.4572 -8.95245,-3.7787 2.19781,2.4665 5.38891,4.0287 8.95245,4.0287 3.5306,0 6.6953,-1.5314 8.8881,-3.9592 -2.2385,2.2838 -5.39,3.7092 -8.8881,3.7092 z"
     fill="#fefefe"
     id="path1362" />
  <path
     opacity="0.1"
     d="m 66.49678,14.25 v 0.25 h 6.4862 l 0.1013,-0.25 z"
     fill="#fefefe"
     id="path1364" />
  <path
     d="m 78.49118,12.147 c 8e-4,-0.0492 0.0056,-0.0976 0.0056,-0.147 0,-0.014 -0.0022,-0.0275 -0.0023,-0.0414 -6e-4,0.0629 -0.0038,0.1252 -0.0033,0.1884 z"
     fill="#e6e6e6"
     id="path1366" />
  <path
     opacity="0.2"
     d="m 66.49678,9.5 v 0.25 h 11.7856 c -0.0158,-0.08252 -0.033,-0.16809 -0.0504,-0.25 z"
     fill="#fefefe"
     id="path1368" />
  <path
     opacity="0.1"
     d="M 70.28528,5.89069 C 69.19068,5.18066 67.89868,4.75 66.49678,4.75 c -3.86597,0 -7,3.13397 -7,7 0,0.0422 5.7e-4,0.0751 0.0013,0.1172 C 59.56552,8.05951 62.67299,5 66.49678,5 c 1.4019,0 2.6939,0.43066 3.7885,1.14069 0.1676,0.10888 0.3404,0.21112 0.4978,0.33337 l 3.6372,-3.46997 -3.6372,3.21997 c -0.1574,-0.12225 -0.3302,-0.22449 -0.4978,-0.33337 z"
     fill="#fefefe"
     id="path1372" />
  <path
     opacity="0.2"
     d="m 66.49678,0.25 c 2.975,0 5.6829,1.09839 7.7793,2.8916 l 0.1442,-0.13751 -0.1101,-0.09582 C 72.20578,1.08436 69.50028,0 66.49678,0 c -6.62744,0 -12,5.37256 -12,12 0,0.0422 0.0059,0.0829 0.0063,0.125 C 54.570816,5.55585 59.91151,0.25 66.49678,0.25 Z"
     fill="#fefefe"
     id="path1374" />
  <path
     d="m 23.584588,18.742223 c -0.430895,0.838494 -0.940935,1.610322 -1.531877,2.31993 -0.805511,0.967377 -1.465045,1.636987 -1.973326,2.008828 -0.787923,0.610352 -1.632127,0.922936 -2.536128,0.940712 -0.648981,0 -1.431628,-0.155552 -2.342665,-0.471096 -0.914026,-0.314067 -1.754008,-0.469616 -2.522058,-0.469616 -0.805511,0 -1.669412,0.155549 -2.593463,0.469616 C 9.1596122,23.856141 8.4140752,24.020583 7.8440619,24.036879 6.9771703,24.067988 6.1130934,23.746514 5.2505996,23.070981 4.7001086,22.666548 4.0115533,21.973236 3.1866972,20.991043 2.3016902,19.942186 1.5740912,18.725927 1.0040799,17.339303 0.39361454,15.84157 0.08759124,14.391244 0.08759124,12.987139 c 0,-1.608395 0.4126033,-2.9956122 1.23904346,-4.1580966 C 1.9761436,7.8952934 2.8402228,7.1587234 3.9216815,6.6179984 5.0031402,6.077275 6.1716599,5.801728 7.4300511,5.7840985 c 0.6885531,0 1.5914991,0.1794019 2.7135859,0.531984 1.118922,0.3537669 1.837374,0.5331689 2.152367,0.5331689 0.235498,0 1.033622,-0.209772 2.386634,-0.6279807 1.279497,-0.3878402 2.359373,-0.5484283 3.244028,-0.485171 2.397186,0.1629581 4.198154,0.9589337 5.395868,2.3929647 -2.143925,1.094189 -3.204456,2.6267356 -3.183351,4.5927496 0.01935,1.53136 0.67888,2.805692 1.975084,3.817514 0.587424,0.469614 1.243442,0.832566 1.973324,1.090336 -0.158286,0.386655 -0.325368,0.757014 -0.503003,1.112559 z M 18.086713,0.51907357 c 0,1.20027383 -0.520593,2.32096633 -1.558259,3.35826753 -1.252236,1.2331483 -2.766877,1.9457188 -4.409381,1.8332781 -0.02093,-0.143996 -0.03306,-0.2955466 -0.03306,-0.4548007 0,-1.1522618 0.595515,-2.3854095 1.653057,-3.3936752 0.527978,-0.5105025 1.199471,-0.93497854 2.013776,-1.27359113 0.812546,-0.3335604 1.581123,-0.5180263 2.303972,-0.5496153 0.02111,0.160458 0.0299,0.3209258 0.0299,0.4801211 z"
     id="path4"
     inkscape:connector-curvature="0"
     style="fill:#ffffff;fill-opacity:1;stroke-width:0.0220267" />
</svg>
